<svg width="646" height="538" viewBox="0 0 646 538" fill="none" xmlns="http://www.w3.org/2000/svg">
<rect width="646" height="82" fill="#212332"/>
<path fill-rule="evenodd" clip-rule="evenodd" d="M75.6682 23H455.65L492.64 58.7217L596.883 58.7217L621 81H16L75.6682 23Z" fill="url(#paint0_radial_4_816)" fill-opacity="0.5"/>
<mask id="path-3-outside-1_4_816" maskUnits="userSpaceOnUse" x="14.0233" y="22.9111" width="618" height="495" fill="black">
<rect fill="white" x="14.0233" y="22.9111" width="618" height="495"/>
<path fill-rule="evenodd" clip-rule="evenodd" d="M452.367 23.9111H75.1163L15.0233 79.7037V444.348L77.6068 516.081H574.981L630.977 444.348V91.6593L592.584 57.7852L489.09 57.7852L452.367 23.9111Z"/>
</mask>
<path d="M75.1163 23.9111V22.9111H74.7237L74.4359 23.1783L75.1163 23.9111ZM452.367 23.9111L453.045 23.1761L452.758 22.9111H452.367V23.9111ZM15.0233 79.7037L14.3429 78.9709L14.0233 79.2676V79.7037H15.0233ZM15.0233 444.348H14.0233V444.723L14.2698 445.006L15.0233 444.348ZM77.6068 516.081L76.8533 516.739L77.1522 517.081H77.6068V516.081ZM574.981 516.081V517.081H575.469L575.769 516.697L574.981 516.081ZM630.977 444.348L631.765 444.963L631.977 444.692V444.348H630.977ZM630.977 91.6593H631.977V91.208L631.638 90.9094L630.977 91.6593ZM592.584 57.7852L593.246 57.0353L592.962 56.7852L592.584 56.7852L592.584 57.7852ZM489.09 57.7852L488.412 58.5203L488.7 58.7852L489.09 58.7852L489.09 57.7852ZM75.1163 24.9111H452.367V22.9111H75.1163V24.9111ZM15.7037 80.4366L75.7967 24.644L74.4359 23.1783L14.3429 78.9709L15.7037 80.4366ZM16.0233 444.348V79.7037H14.0233V444.348H16.0233ZM78.3604 515.424L15.7768 443.691L14.2698 445.006L76.8533 516.739L78.3604 515.424ZM574.981 515.081H77.6068V517.081H574.981V515.081ZM630.189 443.733L574.193 515.466L575.769 516.697L631.765 444.963L630.189 443.733ZM629.977 91.6593V444.348H631.977V91.6593H629.977ZM631.638 90.9094L593.246 57.0353L591.922 58.535L630.315 92.4091L631.638 90.9094ZM489.09 58.7852L592.584 58.7852L592.584 56.7852L489.09 56.7852L489.09 58.7852ZM451.689 24.6462L488.412 58.5203L489.768 57.0502L453.045 23.1761L451.689 24.6462Z" fill="#4774C4" mask="url(#path-3-outside-1_4_816)"/>
<path fill-rule="evenodd" clip-rule="evenodd" d="M458.677 0H63.0244L0 60.9879V90.3927L8.75336 100.194V69.6563L70.2406 10.8907H456.244L492.056 44.8955L491.995 32.032L458.677 0ZM0 278.802L7.87805 288.256V288.603H8.16703H8.75336V453.732L72.7888 529.288H581.702L638.997 453.732L638.997 400.777L646 394.243V459.587L587.273 538H65.6364L0 459.587V278.802ZM646 74.0567L646 115.441L638.997 121.976V82.2489L599.714 46.5698H591.771L591.726 37.0283H646L605.734 37.0284L646 74.0567Z" fill="#4774C4"/>
<path d="M503.917 61L515 77H505.083L494 61H503.917Z" fill="url(#paint1_linear_4_816)" fill-opacity="0.5"/>
<path d="M503.917 61L515 77H505.083L494 61H503.917Z" fill="url(#paint2_linear_4_816)" fill-opacity="0.5"/>
<path d="M503.917 61L515 77H505.083L494 61H503.917Z" fill="url(#paint3_linear_4_816)" fill-opacity="0.5"/>
<path d="M503.917 61L515 77H505.083L494 61H503.917Z" fill="url(#paint4_linear_4_816)" fill-opacity="0.5"/>
<path d="M516.917 61L528 77H518.083L507 61H516.917Z" fill="url(#paint5_linear_4_816)" fill-opacity="0.5"/>
<path d="M516.917 61L528 77H518.083L507 61H516.917Z" fill="url(#paint6_linear_4_816)" fill-opacity="0.5"/>
<path d="M516.917 61L528 77H518.083L507 61H516.917Z" fill="url(#paint7_linear_4_816)" fill-opacity="0.5"/>
<path d="M516.917 61L528 77H518.083L507 61H516.917Z" fill="url(#paint8_linear_4_816)" fill-opacity="0.5"/>
<path d="M529.917 61L541 77H531.083L520 61H529.917Z" fill="url(#paint9_linear_4_816)" fill-opacity="0.5"/>
<path d="M529.917 61L541 77H531.083L520 61H529.917Z" fill="url(#paint10_linear_4_816)" fill-opacity="0.5"/>
<path d="M529.917 61L541 77H531.083L520 61H529.917Z" fill="url(#paint11_linear_4_816)" fill-opacity="0.5"/>
<path d="M529.917 61L541 77H531.083L520 61H529.917Z" fill="url(#paint12_linear_4_816)" fill-opacity="0.5"/>
<path d="M542.917 61L554 77H544.083L533 61H542.917Z" fill="url(#paint13_linear_4_816)" fill-opacity="0.5"/>
<path d="M542.917 61L554 77H544.083L533 61H542.917Z" fill="url(#paint14_linear_4_816)" fill-opacity="0.5"/>
<path d="M542.917 61L554 77H544.083L533 61H542.917Z" fill="url(#paint15_linear_4_816)" fill-opacity="0.5"/>
<path d="M542.917 61L554 77H544.083L533 61H542.917Z" fill="url(#paint16_linear_4_816)" fill-opacity="0.5"/>
<path d="M555.917 61L567 77H557.083L546 61H555.917Z" fill="url(#paint17_linear_4_816)" fill-opacity="0.5"/>
<path d="M555.917 61L567 77H557.083L546 61H555.917Z" fill="url(#paint18_linear_4_816)" fill-opacity="0.5"/>
<path d="M555.917 61L567 77H557.083L546 61H555.917Z" fill="url(#paint19_linear_4_816)" fill-opacity="0.5"/>
<path d="M555.917 61L567 77H557.083L546 61H555.917Z" fill="url(#paint20_linear_4_816)" fill-opacity="0.5"/>
<path d="M568.917 61L580 77H570.083L559 61H568.917Z" fill="url(#paint21_linear_4_816)" fill-opacity="0.5"/>
<path d="M568.917 61L580 77H570.083L559 61H568.917Z" fill="url(#paint22_linear_4_816)" fill-opacity="0.5"/>
<path d="M568.917 61L580 77H570.083L559 61H568.917Z" fill="url(#paint23_linear_4_816)" fill-opacity="0.5"/>
<path d="M568.917 61L580 77H570.083L559 61H568.917Z" fill="url(#paint24_linear_4_816)" fill-opacity="0.5"/>
<path d="M581.917 61L593 77H583.083L572 61H581.917Z" fill="url(#paint25_linear_4_816)" fill-opacity="0.5"/>
<path d="M581.917 61L593 77H583.083L572 61H581.917Z" fill="url(#paint26_linear_4_816)" fill-opacity="0.5"/>
<path d="M581.917 61L593 77H583.083L572 61H581.917Z" fill="url(#paint27_linear_4_816)" fill-opacity="0.5"/>
<path d="M581.917 61L593 77H583.083L572 61H581.917Z" fill="url(#paint28_linear_4_816)" fill-opacity="0.5"/>
<path d="M106.938 46.4062C106.75 49.0312 106.344 51.4688 105.719 53.7188H109.938L110.781 52.3125L113.781 54.375L112.938 56.0625H104.688C102.688 59.5 99.1562 61.625 94.0938 62.4375L93.3438 61.0312C97.1562 59.9062 99.6562 58.25 100.844 56.0625H92.9688L92.5938 53.7188H99.0625C99.0625 53.6562 99.0312 53.625 98.9688 53.625C98.9062 53.5625 98.8438 53.5312 98.7812 53.5312C97.5938 52.4062 96.3438 51.375 95.0312 50.4375L96.0625 49.125C96.1875 49.1875 96.375 49.25 96.625 49.3125C98.1875 49.875 99.3125 50.3125 100 50.625C100.562 50.875 100.781 51.25 100.656 51.75C100.531 52.1875 100.281 52.6875 99.9062 53.25C99.8438 53.375 99.75 53.5 99.625 53.625C99.5625 53.6875 99.5312 53.7188 99.5312 53.7188H101.969C102.719 51.9688 103.188 49.5312 103.375 46.4062H106.938ZM95.5 42.5625C95.5625 42.625 95.5938 42.75 95.5938 42.9375C95.6562 43.125 95.6875 43.25 95.6875 43.3125H102.344C102.156 43 101.844 42.5312 101.406 41.9062C101.094 41.4688 100.875 41.1562 100.75 40.9688L101.875 39.9375C103.062 40.375 104.125 40.875 105.062 41.4375C105.5 41.6875 105.594 42.0625 105.344 42.5625C105.281 42.75 105.094 43 104.781 43.3125H110.312L111.25 42.1875L114.438 44.4375L113.406 45.375C113.156 45.6875 112.812 46.2188 112.375 46.9688C111.875 47.8438 111.5 48.4375 111.25 48.75L109.656 48.375C109.719 48.125 109.812 47.6875 109.938 47.0625C110.062 46.4375 110.156 45.9688 110.219 45.6562H95.875C95.9375 46.0312 95.9688 46.5938 95.9688 47.3438C95.9688 47.9062 95.75 48.2188 95.3125 48.2812C94.625 48.3438 93.9375 48.375 93.25 48.375C92.5625 48.3125 92.375 47.9375 92.6875 47.25C93.125 46.1875 93.5312 44.5938 93.9062 42.4688L95.5 42.5625ZM105.531 56.625C108.156 57.375 110.188 58.0312 111.625 58.5938C112.312 58.7812 112.531 59.2188 112.281 59.9062C112.031 60.9062 111.75 61.6875 111.438 62.25C111.188 63 110.719 63.0312 110.031 62.3438C107.781 60.3438 105.906 58.875 104.406 57.9375L105.531 56.625ZM98.3125 46.3125C99.625 46.625 100.906 47.0312 102.156 47.5312C102.719 47.7812 102.938 48.125 102.812 48.5625C102.688 49.125 102.438 49.6562 102.062 50.1562C101.688 50.7188 101.312 50.7812 100.938 50.3438C100.125 49.4688 98.9688 48.5 97.4688 47.4375L98.3125 46.3125ZM119.275 42.2812H122.181V42.9375H124.806L125.744 41.8125L128.65 43.875L127.713 44.8125V60.0938H124.806V58.5H122.181V60.4688H119.275V42.2812ZM134.369 40.9688H137.556V45.8438H137.744L138.588 44.7188L141.025 46.6875L140.275 48H137.556V59.1562C137.806 61.1562 136.525 62.3125 133.713 62.625C133.65 61.375 132.744 60.625 130.994 60.375L130.9 58.9688C133.463 59.3438 134.619 58.9375 134.369 57.75V48H128.463L128.088 45.8438H134.369V40.9688ZM129.869 49.6875C131.244 50.5 132.275 51.25 132.963 51.9375C133.213 52.1875 133.244 52.5 133.056 52.875C132.744 53.5 132.275 54.1562 131.65 54.8438C131.15 55.2188 130.806 55.1562 130.619 54.6562C130.431 53.7812 129.869 52.375 128.931 50.4375L129.869 49.6875ZM122.181 45V49.6875H124.806V45H122.181ZM122.181 51.75V56.4375H124.806V51.75H122.181ZM154.394 41.3438H157.488V41.9062H162.175L163.113 40.7812L166.019 42.75L165.456 43.4062V54.4688H162.363V44.0625H157.488V54.4688H154.394V53.25C153.956 53.8125 153.581 54.2188 153.269 54.4688C152.769 54.7812 152.488 54.7188 152.425 54.2812C152.238 53.7812 151.956 53 151.581 51.9375C151.331 51.375 151.175 50.9688 151.113 50.7188V62.4375H148.019V53.3438C147.019 54.0938 146.175 54.6875 145.488 55.125L144.175 54.1875C146.488 52.125 148.3 49.625 149.613 46.6875H145.206L144.738 44.5312H150.175L151.019 43.3125L154.3 45.6562L152.894 47.0625C152.331 48.125 151.738 49.0938 151.113 49.9688V50.5312L152.05 49.9688C152.925 50.6562 153.706 51.3438 154.394 52.0312V41.3438ZM162.738 59.1562H163.581C164.206 59.0938 164.675 57.9688 164.988 55.7812L166.019 56.0625C165.831 57.8125 166.175 58.7188 167.05 58.7812C166.675 60.9062 165.738 62 164.238 62.0625H161.613C159.925 62.125 159.113 61.2812 159.175 59.5312V57.9375C157.925 59.5 155.925 61.0938 153.175 62.7188L151.956 61.3125C154.581 59.1875 156.331 57.3438 157.206 55.7812C158.081 54.2812 158.488 52.1875 158.425 49.5V45.6562H161.425V49.125C161.425 50.1875 161.363 51.0938 161.238 51.8438H162.081V58.3125C162.019 58.9375 162.238 59.2188 162.738 59.1562ZM148.488 39.9375C149.3 40.5 150.081 41.1875 150.831 42C151.206 42.3125 151.175 42.6562 150.738 43.0312C150.55 43.2812 150.081 43.6875 149.331 44.25C148.831 44.625 148.488 44.4688 148.3 43.7812C148.05 42.6562 147.706 41.5625 147.269 40.5L148.488 39.9375ZM172.731 42.0938H175.356V48.4688H176.2V40.5H179.012V43.4062H179.387L179.95 42.5625L181.919 44.1562L181.075 45.375H179.012V48.4688H179.669L180.325 47.5312L182.106 48.75V45.4688H184.919V45.9375H185.387C185.637 45 185.794 44.25 185.856 43.6875H182.294L181.825 41.625H190.544L191.106 40.5938L193.544 42.2812L192.7 43.6875H188.95C188.887 43.875 188.762 44.125 188.575 44.4375C188.262 45.125 188.012 45.625 187.825 45.9375H189.325L190.169 44.9062L193.169 46.7812L192.231 48V56.9062H189.325V48H184.919V56.7188H182.106V49.5938L181.637 50.4375H171.887L171.419 48.4688H172.731V42.0938ZM185.669 48.9375H188.575V52.7812C188.575 54.4062 188.387 55.7812 188.012 56.9062C188.512 57.0938 189.231 57.375 190.169 57.75C191.544 58.3125 192.481 58.7188 192.981 58.9688C193.419 59.1562 193.544 59.5312 193.356 60.0938C193.231 60.7188 192.981 61.4375 192.606 62.25C192.294 62.75 191.95 62.7812 191.575 62.3438C190.512 61.2188 189.075 59.9688 187.262 58.5938C186.262 60.2812 184.2 61.625 181.075 62.625L179.762 61.3125C184.075 59.375 186.044 56.5625 185.669 52.875V48.9375ZM179.387 51.4688L182.012 52.4062C180.95 56.9062 177.794 60.2812 172.544 62.5312L171.044 61.4062C173.231 60.0312 174.95 58.625 176.2 57.1875H175.825V50.7188H178.544V53.7188C178.919 52.9688 179.2 52.2188 179.387 51.4688ZM170.762 56.5312C171.762 54.7812 172.45 53.0625 172.825 51.375L175.544 52.4062C174.419 54.4688 173.2 56.0625 171.887 57.1875L170.762 56.5312ZM203.256 45.0938H205.881V45.75H211.506L212.444 44.7188L215.163 46.5938L214.225 47.625V57.4688H211.6V56.9062H205.881V57.4688H203.256V45.0938ZM215.631 46.7812H218.631V62.5312H215.631V60.9375H201.85L201.1 61.9688L198.194 59.9062C198.756 59.3438 199.038 58.5938 199.038 57.6562V46.7812H202.038V58.7812H215.631V46.7812ZM198.944 41.8125H215.444L216.475 40.5938L219.1 42.4688L218.256 43.9688H199.413L198.944 41.8125ZM210.006 52.2188V54.8438H211.6V52.2188H210.006ZM205.881 52.2188V54.8438H207.475V52.2188H205.881ZM210.006 47.8125V50.25H211.6V47.8125H210.006ZM205.881 47.8125V50.25H207.475V47.8125H205.881ZM226 46.125H229.375V46.6875H232.562L233.312 43.875H224.969L224.406 41.7188H242.594L243.25 40.5938L245.969 42.2812L245.125 43.875H237.062L236.219 46.6875H240.906L241.938 45.5625L245.312 47.7188L244.188 49.0312V62.625H240.812V61.125H229.375V62.625H226V46.125ZM229.375 48.8438V58.9688H230.688V48.8438H229.375ZM239.5 48.8438V58.9688H240.812V48.8438H239.5ZM233.875 57V58.9688H236.312V57H233.875ZM233.875 48.8438V50.8125H236.312V48.8438H233.875ZM233.875 52.9688V54.8438H236.312V52.9688H233.875Z" fill="#D3FFF8"/>
<path fill-rule="evenodd" clip-rule="evenodd" d="M0 0H63.0244L0 60.9879V0ZM491.995 32.032L458.677 0H646L646 37.0283H591.726L591.771 46.5698H599.714L638.997 82.2489V121.976L646 115.441L646 394.243L638.997 400.777L638.997 453.732L581.702 529.288H72.7888L8.75336 453.732V288.603H8.16703H7.87805V288.256L0 278.802V90.3927L8.75336 100.194V69.6563L70.2406 10.8907H456.244L492.056 44.8955L491.995 32.032ZM646 37.0283L646 74.0567L605.734 37.0284L646 37.0283ZM587.273 538L646 459.587V538H587.273ZM0 459.587L65.6364 538H0V459.587ZM452.854 23H455.65L490.634 56.7852L592.584 56.7852H592.962L593.246 57.0353L595.157 58.7217H596.883L621 81H620.407L631.638 90.9094L631.977 91.208V91.6593V444.348V444.692L631.765 444.963L575.769 516.697L575.469 517.081H574.981H77.6068H77.1522L76.8533 516.739L14.2698 445.006L14.0233 444.723V444.348V79.7037V79.2676L14.3429 78.9709L74.4359 23.1783L74.7237 22.9111H75.1163H452.367H452.758L452.854 23ZM66.525 31.8876L15.0233 79.7037V444.348L77.6068 516.081H574.981L630.977 444.348V91.6593L618.896 81H598.128L623 102.573V440.308L568.455 509H83.9626L23 440.308V91.1245L34.0928 81H16L66.525 31.8876ZM593.645 58.7217L592.584 57.7852L491.67 57.7852L492.64 58.7217L593.645 58.7217Z" fill="#212332"/>
<defs>
<radialGradient id="paint0_radial_4_816" cx="0" cy="0" r="1" gradientUnits="userSpaceOnUse" gradientTransform="translate(316.02 75.6046) rotate(-90) scale(67.4419 304.98)">
<stop stop-color="#D3FFF8"/>
<stop offset="0.104167" stop-color="#15ADFA" stop-opacity="0.5"/>
<stop offset="0.511666" stop-color="#2F91F7" stop-opacity="0.5"/>
<stop offset="1" stop-color="white" stop-opacity="0"/>
</radialGradient>
<linearGradient id="paint1_linear_4_816" x1="504.5" y1="61" x2="504.5" y2="77" gradientUnits="userSpaceOnUse">
<stop stop-color="#FAFDFF" stop-opacity="0"/>
<stop offset="1" stop-color="#2F91F7" stop-opacity="0.5"/>
</linearGradient>
<linearGradient id="paint2_linear_4_816" x1="504.5" y1="61" x2="504.5" y2="77" gradientUnits="userSpaceOnUse">
<stop stop-color="#FAFDFF" stop-opacity="0"/>
<stop offset="1" stop-color="#2F91F7" stop-opacity="0.5"/>
</linearGradient>
<linearGradient id="paint3_linear_4_816" x1="504.5" y1="61" x2="504.5" y2="77" gradientUnits="userSpaceOnUse">
<stop stop-color="#FAFDFF" stop-opacity="0"/>
<stop offset="1" stop-color="#2F91F7" stop-opacity="0.5"/>
</linearGradient>
<linearGradient id="paint4_linear_4_816" x1="504.5" y1="61" x2="504.5" y2="77" gradientUnits="userSpaceOnUse">
<stop stop-color="#FAFDFF" stop-opacity="0"/>
<stop offset="1" stop-color="#2F91F7" stop-opacity="0.5"/>
</linearGradient>
<linearGradient id="paint5_linear_4_816" x1="517.5" y1="61" x2="517.5" y2="77" gradientUnits="userSpaceOnUse">
<stop stop-color="#FAFDFF" stop-opacity="0"/>
<stop offset="1" stop-color="#2F91F7" stop-opacity="0.5"/>
</linearGradient>
<linearGradient id="paint6_linear_4_816" x1="517.5" y1="61" x2="517.5" y2="77" gradientUnits="userSpaceOnUse">
<stop stop-color="#FAFDFF" stop-opacity="0"/>
<stop offset="1" stop-color="#2F91F7" stop-opacity="0.5"/>
</linearGradient>
<linearGradient id="paint7_linear_4_816" x1="517.5" y1="61" x2="517.5" y2="77" gradientUnits="userSpaceOnUse">
<stop stop-color="#FAFDFF" stop-opacity="0"/>
<stop offset="1" stop-color="#2F91F7" stop-opacity="0.5"/>
</linearGradient>
<linearGradient id="paint8_linear_4_816" x1="517.5" y1="61" x2="517.5" y2="77" gradientUnits="userSpaceOnUse">
<stop stop-color="#FAFDFF" stop-opacity="0"/>
<stop offset="1" stop-color="#2F91F7" stop-opacity="0.5"/>
</linearGradient>
<linearGradient id="paint9_linear_4_816" x1="530.5" y1="61" x2="530.5" y2="77" gradientUnits="userSpaceOnUse">
<stop stop-color="#FAFDFF" stop-opacity="0"/>
<stop offset="1" stop-color="#2F91F7" stop-opacity="0.5"/>
</linearGradient>
<linearGradient id="paint10_linear_4_816" x1="530.5" y1="61" x2="530.5" y2="77" gradientUnits="userSpaceOnUse">
<stop stop-color="#FAFDFF" stop-opacity="0"/>
<stop offset="1" stop-color="#2F91F7" stop-opacity="0.5"/>
</linearGradient>
<linearGradient id="paint11_linear_4_816" x1="530.5" y1="61" x2="530.5" y2="77" gradientUnits="userSpaceOnUse">
<stop stop-color="#FAFDFF" stop-opacity="0"/>
<stop offset="1" stop-color="#2F91F7" stop-opacity="0.5"/>
</linearGradient>
<linearGradient id="paint12_linear_4_816" x1="530.5" y1="61" x2="530.5" y2="77" gradientUnits="userSpaceOnUse">
<stop stop-color="#FAFDFF" stop-opacity="0"/>
<stop offset="1" stop-color="#2F91F7" stop-opacity="0.5"/>
</linearGradient>
<linearGradient id="paint13_linear_4_816" x1="543.5" y1="61" x2="543.5" y2="77" gradientUnits="userSpaceOnUse">
<stop stop-color="#FAFDFF" stop-opacity="0"/>
<stop offset="1" stop-color="#2F91F7" stop-opacity="0.5"/>
</linearGradient>
<linearGradient id="paint14_linear_4_816" x1="543.5" y1="61" x2="543.5" y2="77" gradientUnits="userSpaceOnUse">
<stop stop-color="#FAFDFF" stop-opacity="0"/>
<stop offset="1" stop-color="#2F91F7" stop-opacity="0.5"/>
</linearGradient>
<linearGradient id="paint15_linear_4_816" x1="543.5" y1="61" x2="543.5" y2="77" gradientUnits="userSpaceOnUse">
<stop stop-color="#FAFDFF" stop-opacity="0"/>
<stop offset="1" stop-color="#2F91F7" stop-opacity="0.5"/>
</linearGradient>
<linearGradient id="paint16_linear_4_816" x1="543.5" y1="61" x2="543.5" y2="77" gradientUnits="userSpaceOnUse">
<stop stop-color="#FAFDFF" stop-opacity="0"/>
<stop offset="1" stop-color="#2F91F7" stop-opacity="0.5"/>
</linearGradient>
<linearGradient id="paint17_linear_4_816" x1="556.5" y1="61" x2="556.5" y2="77" gradientUnits="userSpaceOnUse">
<stop stop-color="#FAFDFF" stop-opacity="0"/>
<stop offset="1" stop-color="#2F91F7" stop-opacity="0.5"/>
</linearGradient>
<linearGradient id="paint18_linear_4_816" x1="556.5" y1="61" x2="556.5" y2="77" gradientUnits="userSpaceOnUse">
<stop stop-color="#FAFDFF" stop-opacity="0"/>
<stop offset="1" stop-color="#2F91F7" stop-opacity="0.5"/>
</linearGradient>
<linearGradient id="paint19_linear_4_816" x1="556.5" y1="61" x2="556.5" y2="77" gradientUnits="userSpaceOnUse">
<stop stop-color="#FAFDFF" stop-opacity="0"/>
<stop offset="1" stop-color="#2F91F7" stop-opacity="0.5"/>
</linearGradient>
<linearGradient id="paint20_linear_4_816" x1="556.5" y1="61" x2="556.5" y2="77" gradientUnits="userSpaceOnUse">
<stop stop-color="#FAFDFF" stop-opacity="0"/>
<stop offset="1" stop-color="#2F91F7" stop-opacity="0.5"/>
</linearGradient>
<linearGradient id="paint21_linear_4_816" x1="569.5" y1="61" x2="569.5" y2="77" gradientUnits="userSpaceOnUse">
<stop stop-color="#FAFDFF" stop-opacity="0"/>
<stop offset="1" stop-color="#2F91F7" stop-opacity="0.5"/>
</linearGradient>
<linearGradient id="paint22_linear_4_816" x1="569.5" y1="61" x2="569.5" y2="77" gradientUnits="userSpaceOnUse">
<stop stop-color="#FAFDFF" stop-opacity="0"/>
<stop offset="1" stop-color="#2F91F7" stop-opacity="0.5"/>
</linearGradient>
<linearGradient id="paint23_linear_4_816" x1="569.5" y1="61" x2="569.5" y2="77" gradientUnits="userSpaceOnUse">
<stop stop-color="#FAFDFF" stop-opacity="0"/>
<stop offset="1" stop-color="#2F91F7" stop-opacity="0.5"/>
</linearGradient>
<linearGradient id="paint24_linear_4_816" x1="569.5" y1="61" x2="569.5" y2="77" gradientUnits="userSpaceOnUse">
<stop stop-color="#FAFDFF" stop-opacity="0"/>
<stop offset="1" stop-color="#2F91F7" stop-opacity="0.5"/>
</linearGradient>
<linearGradient id="paint25_linear_4_816" x1="582.5" y1="61" x2="582.5" y2="77" gradientUnits="userSpaceOnUse">
<stop stop-color="#FAFDFF" stop-opacity="0"/>
<stop offset="1" stop-color="#2F91F7" stop-opacity="0.5"/>
</linearGradient>
<linearGradient id="paint26_linear_4_816" x1="582.5" y1="61" x2="582.5" y2="77" gradientUnits="userSpaceOnUse">
<stop stop-color="#FAFDFF" stop-opacity="0"/>
<stop offset="1" stop-color="#2F91F7" stop-opacity="0.5"/>
</linearGradient>
<linearGradient id="paint27_linear_4_816" x1="582.5" y1="61" x2="582.5" y2="77" gradientUnits="userSpaceOnUse">
<stop stop-color="#FAFDFF" stop-opacity="0"/>
<stop offset="1" stop-color="#2F91F7" stop-opacity="0.5"/>
</linearGradient>
<linearGradient id="paint28_linear_4_816" x1="582.5" y1="61" x2="582.5" y2="77" gradientUnits="userSpaceOnUse">
<stop stop-color="#FAFDFF" stop-opacity="0"/>
<stop offset="1" stop-color="#2F91F7" stop-opacity="0.5"/>
</linearGradient>
</defs>
</svg>
