<?xml version="1.0" standalone="no"?><!DOCTYPE svg PUBLIC "-//W3C//DTD SVG 1.1//EN" "http://www.w3.org/Graphics/SVG/1.1/DTD/svg11.dtd"><svg t="1711745767690" class="icon" viewBox="0 0 1024 1024" version="1.1" xmlns="http://www.w3.org/2000/svg" p-id="9247" xmlns:xlink="http://www.w3.org/1999/xlink" width="256" height="256"><path d="M855.24 113.72a35.014 35.014 0 0 0-33.09-2.91l-68.18 29.37c-74.51 32.1-158.84 23.71-225.58-22.43-41.53-28.72-90.02-46.76-140.22-52.18-50.2-5.42-101.42 1.86-148.13 21.05l-58.19 23.91c-0.86 0.35-1.7 0.73-2.52 1.14-0.04 0.02-0.07 0.04-0.11 0.06-1.47 0.74-2.88 1.59-4.23 2.53-0.13 0.09-0.26 0.18-0.38 0.27-0.6 0.43-1.19 0.88-1.76 1.35-0.03 0.03-0.07 0.05-0.1 0.08-0.58 0.48-1.13 0.97-1.68 1.49-0.15 0.14-0.29 0.28-0.43 0.41-0.54 0.52-1.06 1.05-1.56 1.6a45.614 45.614 0 0 0-1.5 1.77c-0.1 0.12-0.19 0.25-0.29 0.37a33.95 33.95 0 0 0-2.64 3.95c-0.04 0.07-0.08 0.13-0.11 0.2-0.81 1.43-1.52 2.92-2.13 4.46-0.01 0.03-0.03 0.07-0.04 0.1-0.59 1.53-1.08 3.11-1.46 4.74-0.02 0.08-0.04 0.16-0.06 0.25-0.35 1.55-0.59 3.14-0.73 4.77-0.01 0.18-0.03 0.36-0.04 0.53-0.05 0.79-0.09 1.58-0.09 2.38v799c0 19.33 15.67 35 35 35s35-15.67 35-35V565.49l36.65-15.06c73.56-30.22 156.53-21.26 221.94 23.96 42.27 29.23 91.64 47.36 142.77 52.45 9.96 0.99 19.95 1.48 29.93 1.48 41.27 0 82.37-8.41 120.38-24.78l68.18-29.37a34.994 34.994 0 0 0 21.15-32.14V142.95a34.951 34.951 0 0 0-15.75-29.23zM801 519l-47.02 20.25c-74.51 32.1-158.84 23.71-225.58-22.43-41.53-28.72-90.02-46.76-140.22-52.18a300.964 300.964 0 0 0-32.45-1.74c-39.56 0-79.01 7.72-115.68 22.79L230 489.81v-323.4l36.65-15.06c73.56-30.22 156.53-21.26 221.94 23.96 42.27 29.23 91.64 47.36 142.77 52.45 51.14 5.08 103.11-2.97 150.31-23.3l19.33-8.33V519z" p-id="9248" fill="#d81e06"></path></svg>